<svg id="icon-vimeo" xmlns="http://www.w3.org/2000/svg" width="27.756" height="24" viewBox="0 0 27.756 24">
  <path id="Icon_awesome-vimeo-v" data-name="Icon awesome-vimeo-v" d="M27.743,10.052q-.186,4.052-5.663,11.1-5.66,7.36-9.578,7.36-2.426,0-4.108-4.479c-2.181-8-3.11-12.694-4.913-12.694A8.647,8.647,0,0,0,1.3,12.642L0,10.957c3.2-2.807,6.251-5.929,8.166-6.1q3.243-.316,3.99,4.43c1.778,11.245,2.565,12.942,5.8,7.85a10.938,10.938,0,0,0,1.871-4.188c.3-2.844-2.218-2.652-3.922-1.921q2.044-6.7,7.819-6.511c2.838.074,4.182,1.927,4.021,5.539Z" transform="translate(0 -4.508)" fill="#ceced1"/>
</svg>
